<svg width="64" height="64" viewBox="0 0 64 64" fill="none" xmlns="http://www.w3.org/2000/svg">
<rect x="0" y="0" width="64" height="64" fill="#1C0F4A"/>
<path d="M32 4C20.9543 4 12 12.9543 12 24C12 35.0457 20.9543 44 32 44C43.0457 44 52 35.0457 52 24C52 12.9543 43.0457 4 32 4ZM32 10V38C32 39.1046 31.1046 40 30 40H28C26.8954 40 26 39.1046 26 38V10C26 8.89543 26.8954 8 28 8H30C31.1046 8 32 8.89543 32 10Z" fill="#8A2BE2"/>
<path d="M24 40L14 50L24 60M40 40L50 50L40 60" stroke="#4169E1" stroke-width="4" stroke-linecap="round" stroke-linejoin="round"/>
</svg>